custom-analysis
version=1
nRows=5
nColumns=98
inDegrees=no

This file contains tibia displacement and acting force.

Units are S.I. units (seconds, meters, Newtons, ...)
Angles are in degrees.

endheader
time	APT	SIT	knee_angle	aACL_R_force	pACL_R_force	aPCL_R_force	pPCL_R_force	aMCL_R_force	mMCL_R_force	pMCL_R_force	aLCL_R_force	mLCL_R_force	pLCL_R_force	aPCL_L_force	pPCL_L_force	aMCL_L_force	aLCL_L_force	aACL_R_length	pACL_R_length	aPCL_R_length	pPCL_R_length	aMCL_R_length	mMCL_R_length	pMCL_R_length	aLCL_R_length	mLCL_R_length	pLCL_R_length	aPCL_L_length	pPCL_L_length	aMCL_L_length	aLCL_L_length	aACL_R_strain	pACL_R_strain	aPCL_R_strain	pPCL_R_strain	aMCL_R_strain	mMCL_R_strain	pMCL_R_strain	aLCL_R_strain	mLCL_R_strain	pLCL_R_strain	aPCL_L_strain	pPCL_L_strain	aMCL_L_strain	aLCL_L_strain	femur_lat_meniscii_r.femur_lat_r.force.X	femur_lat_meniscii_r.femur_lat_r.force.Y	femur_lat_meniscii_r.femur_lat_r.force.Z	femur_lat_meniscii_r.femur_lat_r.torque.X	femur_lat_meniscii_r.femur_lat_r.torque.Y	femur_lat_meniscii_r.femur_lat_r.torque.Z	femur_lat_meniscii_r.meniscus_lat_r.force.X	femur_lat_meniscii_r.meniscus_lat_r.force.Y	femur_lat_meniscii_r.meniscus_lat_r.force.Z	femur_lat_meniscii_r.meniscus_lat_r.torque.X	femur_lat_meniscii_r.meniscus_lat_r.torque.Y	femur_lat_meniscii_r.meniscus_lat_r.torque.Z	femur_med_meniscii_r.femur_med_r.force.X	femur_med_meniscii_r.femur_med_r.force.Y	femur_med_meniscii_r.femur_med_r.force.Z	femur_med_meniscii_r.femur_med_r.torque.X	femur_med_meniscii_r.femur_med_r.torque.Y	femur_med_meniscii_r.femur_med_r.torque.Z	femur_med_meniscii_r.meniscus_med_r.force.X	femur_med_meniscii_r.meniscus_med_r.force.Y	femur_med_meniscii_r.meniscus_med_r.force.Z	femur_med_meniscii_r.meniscus_med_r.torque.X	femur_med_meniscii_r.meniscus_med_r.torque.Y	femur_med_meniscii_r.meniscus_med_r.torque.Z	femur_med_tibia_r.tibia_upper_r.force.X	femur_med_tibia_r.tibia_upper_r.force.Y	femur_med_tibia_r.tibia_upper_r.force.Z	femur_med_tibia_r.tibia_upper_r.torque.X	femur_med_tibia_r.tibia_upper_r.torque.Y	femur_med_tibia_r.tibia_upper_r.torque.Z	femur_med_tibia_r.femur_med_r.force.X	femur_med_tibia_r.femur_med_r.force.Y	femur_med_tibia_r.femur_med_r.force.Z	femur_med_tibia_r.femur_med_r.torque.X	femur_med_tibia_r.femur_med_r.torque.Y	femur_med_tibia_r.femur_med_r.torque.Z	femur_lat_tibia_r.tibia_upper_r.force.X	femur_lat_tibia_r.tibia_upper_r.force.Y	femur_lat_tibia_r.tibia_upper_r.force.Z	femur_lat_tibia_r.tibia_upper_r.torque.X	femur_lat_tibia_r.tibia_upper_r.torque.Y	femur_lat_tibia_r.tibia_upper_r.torque.Z	femur_lat_tibia_r.femur_lat_r.force.X	femur_lat_tibia_r.femur_lat_r.force.Y	femur_lat_tibia_r.femur_lat_r.force.Z	femur_lat_tibia_r.femur_lat_r.torque.X	femur_lat_tibia_r.femur_lat_r.torque.Y	femur_lat_tibia_r.femur_lat_r.torque.Z	femur_lat_meniscii_force_r	femur_med_meniscii_force_r	femur_lat_tibia_force_r	femur_med_tibia_force_r
      0.16345253	      0.01268250	      0.01721573	     56.48603669	     -8.44363465	      0.00000000	    569.73599595	    378.54754774	      0.00000000	      0.00000000	      0.00000000	      0.00000000	      0.00000000	      0.00000000	      0.00000000	      0.00000000	      0.00000001	      0.00000000	      0.03109246	      0.02379600	      0.03488352	      0.03242900	      0.05949597	      0.05923079	      0.05636736	      0.05237907	      0.04767310	      0.04280373	      0.01525851	      0.01651186	      0.06550154	      0.04489616	      0.00280458	     -0.05038983	      0.12182623	      0.08502476	     -0.00884653	     -0.00941095	     -0.04019618	     -0.06427856	     -0.15351064	     -0.18224076	      0.00000079	     -0.32847694	      0.00000060	     -0.00000086	     53.06015396	    122.78995019	     13.40105735	     -8.38962733	      1.26736877	     20.44626630	    -53.06015396	   -122.78995019	    -13.40105735	      3.39231561	     -1.61726568	      2.54609512	     13.97169992	     13.37108485	      9.53740448	     -3.55542734	     -0.33306898	      5.63921839	    -13.97169992	    -13.37108485	     -9.53740448	     -0.10698091	      0.11807925	      0.02738777	   -808.43721239	   -736.64964705	    226.45173672	    -16.98971138	     18.12410515	     -1.89045195	    808.43721239	    736.64964705	   -226.45173672	    105.45599407	    -14.65031451	    329.01711780	     -1.48090552	     -1.87347744	     -0.61448178	      0.06095559	     -0.05194311	      0.01144782	      1.48090552	      1.87347744	      0.61448178	     -0.29547200	      0.03726098	      0.59850236	    134.43340413	     21.56284751	      2.46588457	   1116.91710433
      0.16388286	      0.01270940	      0.01729848	     56.72052143	     -8.35196697	      0.00000000	    574.71757130	    380.80546245	      0.00000000	      0.00000000	      0.00000000	      0.00000000	      0.00000000	      0.00000000	      0.00000000	      0.00000000	      0.00000001	      0.00000000	      0.03108317	      0.02378984	      0.03491271	      0.03244534	      0.05951806	      0.05923374	      0.05635785	      0.05236826	      0.04765166	      0.04277732	      0.01525851	      0.01651186	      0.06550154	      0.04489616	      0.00250499	     -0.05063561	      0.12276492	      0.08557136	     -0.00847852	     -0.00936150	     -0.04035804	     -0.06447158	     -0.15389117	     -0.18274532	      0.00000079	     -0.32847694	      0.00000060	     -0.00000086	     53.44158565	    121.13099936	     12.80277297	     -8.09645536	      1.26928217	     20.61238002	    -53.44158565	   -121.13099936	    -12.80277297	      3.32787285	     -1.60892215	      2.50616946	     14.19798338	     13.22710184	      9.41221560	     -3.50743274	     -0.33766549	      5.72849132	    -14.19798338	    -13.22710184	     -9.41221560	     -0.10733268	      0.12405610	      0.02443815	   -812.99200039	   -735.63581668	    227.32417523	    -16.96933583	     18.24011091	     -1.84286054	    812.99200039	    735.63581668	   -227.32417523	    105.79065445	    -14.74335231	    330.81518513	     -1.29279440	     -1.59226859	     -0.51643040	      0.05157195	     -0.04483181	      0.00913676	      1.29279440	      1.59226859	      0.51643040	     -0.24866109	      0.03237259	      0.52265642	    133.01365749	     21.56684394	      2.11502647	   1119.72868505
      0.16407389	      0.01272123	      0.01733526	     56.82463290	     -8.36875365	      0.00000000	    576.92523332	    381.83178003	      0.00000000	      0.00000000	      0.00000000	      0.00000000	      0.00000000	      0.00000000	      0.00000000	      0.00000000	      0.00000001	      0.00000000	      0.03107906	      0.02378715	      0.03492560	      0.03245256	      0.05952787	      0.05923508	      0.05635370	      0.05236335	      0.04764206	      0.04276554	      0.01525851	      0.01651186	      0.06550154	      0.04489616	      0.00237261	     -0.05074304	      0.12317943	      0.08581280	     -0.00831516	     -0.00933908	     -0.04042879	     -0.06455933	     -0.15406167	     -0.18297033	      0.00000079	     -0.32847694	      0.00000060	     -0.00000086	     53.49314040	    121.08961491	     12.62640993	     -8.02588216	      1.26797133	     20.62863708	    -53.49314040	   -121.08961491	    -12.62640993	      3.32541251	     -1.60469835	      2.51468150	     14.31071806	     13.19452815	      9.35870633	     -3.48628799	     -0.34001418	      5.77300850	    -14.31071806	    -13.19452815	     -9.35870633	     -0.10807560	      0.12696184	      0.02363123	   -815.59709859	   -734.06003448	    229.38775033	    -16.99191514	     18.35164094	     -1.87182013	    815.59709859	    734.06003448	   -229.38775033	    106.61654843	    -14.81111959	    331.86566672	     -1.20148853	     -1.46582492	     -0.49219068	      0.04796115	     -0.04207628	      0.00825151	      1.20148853	      1.46582492	      0.49219068	     -0.23588216	      0.03022437	      0.48578013	    132.97983733	     21.59809271	      1.95818004	   1121.00914423
      0.16453263	      0.01274932	      0.01742370	     57.07467108	     -8.42276054	      0.00000000	    582.25583495	    384.43691799	      0.00000000	      0.00000000	      0.00000000	      0.00000000	      0.00000000	      0.00000000	      0.00000000	      0.00000000	      0.00000001	      0.00000000	      0.03106916	      0.02378069	      0.03495643	      0.03246985	      0.05955141	      0.05923838	      0.05634390	      0.05235128	      0.04761880	      0.04273715	      0.01525851	      0.01651186	      0.06550154	      0.04489616	      0.00205325	     -0.05100063	      0.12417079	      0.08639136	     -0.00792289	     -0.00928390	     -0.04059561	     -0.06477498	     -0.15447478	     -0.18351278	      0.00000079	     -0.32847694	      0.00000060	     -0.00000086	     55.49016590	    119.89969864	     12.55452309	     -7.95850351	      1.32115558	     21.46020321	    -55.49016590	   -119.89969864	    -12.55452309	      3.28427325	     -1.66081556	      2.44344807	     14.61181377	     13.22012958	      9.29408153	     -3.45904421	     -0.34562997	      5.89140829	    -14.61181377	    -13.22012958	     -9.29408153	     -0.11083149	      0.13256531	      0.02408761	   -822.68334980	   -733.94900515	    230.11180869	    -16.97566833	     18.50766194	     -1.85177072	    822.68334980	    733.94900515	   -230.11180869	    106.90120030	    -14.95017820	    334.69539992	     -1.02479687	     -1.25119547	     -0.42101069	      0.04089506	     -0.03599683	      0.00745098	      1.02479687	      1.25119547	      0.42101069	     -0.20166006	      0.02581896	      0.41412021	    132.71289423	     21.78662157	      1.67121175	   1126.25062961
      0.16459565	      0.01275314	      0.01743587	     57.10902129	     -8.43479742	      0.00000000	    582.99102634	    384.80584506	      0.00000000	      0.00000000	      0.00000000	      0.00000000	      0.00000000	      0.00000000	      0.00000000	      0.00000000	      0.00000001	      0.00000000	      0.03106780	      0.02377981	      0.03496065	      0.03247222	      0.05955465	      0.05923885	      0.05634258	      0.05234959	      0.04761558	      0.04273324	      0.01525851	      0.01651186	      0.06550154	      0.04489616	      0.00200927	     -0.05103593	      0.12430662	      0.08647080	     -0.00786896	     -0.00927612	     -0.04061813	     -0.06480509	     -0.15453188	     -0.18358746	      0.00000079	     -0.32847694	      0.00000060	     -0.00000086	     55.50974543	    120.14501546	     12.55276399	     -7.96436984	      1.32109893	     21.46393068	    -55.50974543	   -120.14501546	    -12.55276399	      3.29120232	     -1.66096133	      2.45423685	     14.63443756	     13.20503445	      9.28536177	     -3.45567784	     -0.34600285	      5.90027397	    -14.63443756	    -13.20503445	     -9.28536177	     -0.11092140	      0.13296103	      0.02393231	   -823.71851537	   -733.93901912	    229.75901471	    -16.96093937	     18.51572928	     -1.85038659	    823.71851537	    733.93901912	   -229.75901471	    106.75317877	    -14.96535368	    335.10951642	     -1.00565887	     -1.22780359	     -0.41320478	      0.04012517	     -0.03533851	      0.00736548	      1.00565887	      1.22780359	      0.41320478	     -0.19791203	      0.02534359	      0.40635568	    132.94257580	     21.78893391	      1.63999684	   1126.92851645
